# Blender v2.78 (sub 0) OBJ File: ''
# www.blender.org
mtllib batu2.mtl
o caillou1_Icosphere
v 1.945720 -0.107820 1.507435
v 2.088576 -0.107658 1.610136
v 1.891727 -0.107820 1.673610
v 2.211363 -0.105101 1.682162
v 2.252969 -0.105167 1.507435
v 1.766456 -0.107820 1.507435
v 1.891727 -0.107820 1.341259
v 2.087077 -0.107820 1.404734
v 2.335107 0.011614 1.611834
v 1.853861 -0.107820 1.790151
v 2.033085 -0.107820 1.776313
v 1.918626 -0.012958 1.839789
v 1.558501 -0.125875 1.470390
v 1.660312 -0.107820 1.673611
v 1.533756 -0.010490 1.594928
v 1.853861 -0.107820 1.224718
v 1.684108 -0.122329 1.311491
v 1.738874 -0.009076 1.195971
v 2.186213 -0.107820 1.332708
v 2.033085 -0.107820 1.238557
v 2.141073 -0.003077 1.238555
v 2.152867 -0.001802 1.776315
v 1.682153 -0.012959 1.776315
v 1.524357 -0.037698 1.333703
v 1.948377 -0.003094 1.151019
v 2.301363 0.008051 1.406509
v 1.998338 0.144426 1.790151
v 2.214322 0.182517 1.675339
v 1.984532 0.288255 1.706595
v 1.617458 0.131247 1.682162
v 1.744165 0.130799 1.776313
v 1.785066 0.262166 1.631729
v 1.685591 0.135460 1.260371
v 1.613687 0.163202 1.490095
v 1.814541 0.248803 1.381325
v 2.041428 0.145534 1.181809
v 1.869343 0.171585 1.139858
v 2.007866 0.255902 1.312347
v 2.330207 0.175530 1.512504
v 2.201902 0.180596 1.342871
v 2.161911 0.281702 1.540865
v 1.978355 0.290147 1.597785
vn 0.0003 -1.0000 0.0002
vn 0.0007 -1.0000 0.0001
vn 0.0002 -1.0000 -0.0001
vn 0.0180 -0.9998 0.0048
vn 0.0164 -0.9999 0.0016
vn 0.0119 -0.9999 0.0104
vn -0.0000 -1.0000 -0.0000
vn 0.0001 -1.0000 0.0002
vn 0.7261 -0.6655 0.1731
vn 0.0668 -0.4980 0.8646
vn -0.7021 -0.5865 0.4039
vn -0.3256 -0.5934 -0.7361
vn 0.4609 -0.4752 -0.7496
vn 0.6559 -0.2708 0.7046
vn -0.2463 -0.3120 0.9176
vn -0.9597 -0.2739 0.0631
vn -0.1741 -0.4568 -0.8724
vn 0.7031 -0.2833 -0.6522
vn 0.3374 0.4969 0.7995
vn -0.4055 0.7307 0.5492
vn -0.4926 0.8322 -0.2547
vn 0.2588 0.7694 -0.5840
vn 0.4643 0.8232 -0.3266
vn 0.0001 -1.0000 -0.0000
vn 0.0179 -0.9998 0.0050
vn 0.0154 -0.9999 0.0012
vn 0.0086 -0.9999 0.0119
vn 0.0793 -0.9960 0.0408
vn 0.0776 -0.9957 0.0496
vn 0.0777 -0.9958 0.0493
vn 0.0731 -0.9970 -0.0237
vn 0.0629 -0.9969 0.0474
vn 0.0793 -0.9960 0.0404
vn 0.9847 -0.0679 -0.1606
vn 0.8628 -0.4877 -0.1333
vn 0.7644 -0.5792 -0.2832
vn 0.2498 0.1739 0.9525
vn 0.2629 -0.2970 0.9180
vn 0.4174 -0.4716 0.7768
vn -0.7718 0.0666 0.6323
vn -0.6947 -0.4487 0.5622
vn -0.4011 -0.6288 0.6661
vn -0.5484 0.1633 -0.8201
vn -0.3957 -0.5550 -0.7317
vn -0.4727 -0.7896 -0.3913
vn 0.4126 -0.0702 -0.9082
vn 0.3805 -0.3923 -0.8375
vn 0.0610 -0.6107 -0.7895
vn 0.3950 0.3366 0.8548
vn 0.6507 0.1863 0.7361
vn 0.7712 0.3466 0.5340
vn -0.5771 0.2489 0.7778
vn -0.2576 0.1111 0.9598
vn -0.0690 0.3317 0.9409
vn -0.7579 0.5758 -0.3067
vn -0.9107 0.4129 -0.0102
vn -0.8816 0.4626 0.0943
vn 0.2435 0.0483 -0.9687
vn -0.2031 -0.1537 -0.9670
vn -0.5629 0.1543 -0.8120
vn 0.7787 0.2342 -0.5820
vn 0.7095 0.1554 -0.6874
vn 0.6767 0.1812 -0.7136
vn 0.0504 0.9986 0.0145
vn 0.4256 0.7995 0.4239
vn 0.5411 0.7636 0.3523
vn -0.1389 0.9900 0.0251
vn -0.3177 0.7448 0.5868
vn -0.0737 0.4957 0.8654
vn -0.1551 0.9854 -0.0708
vn -0.4350 0.8950 -0.0990
vn -0.5817 0.8004 0.1446
vn -0.0816 0.9885 -0.1270
vn -0.1527 0.9307 -0.3323
vn -0.4019 0.8418 -0.3604
vn 0.0090 0.9929 -0.1182
vn 0.3862 0.8507 -0.3564
vn 0.3770 0.7528 -0.5395
usemtl Material.004
s 1
f 1//1 2//2 3//3
f 4//4 2//5 5//6
f 1//1 3//3 6//7
f 1//1 6//7 7//7
f 1//1 7//7 8//8
f 4//9 5//9 9//9
f 10//10 11//10 12//10
f 13//11 14//11 15//11
f 16//12 17//12 18//12
f 19//13 20//13 21//13
f 4//14 9//14 22//14
f 10//15 12//15 23//15
f 13//16 15//16 24//16
f 16//17 18//17 25//17
f 19//18 21//18 26//18
f 27//19 28//19 29//19
f 30//20 31//20 32//20
f 33//21 34//21 35//21
f 36//22 37//22 38//22
f 39//23 40//23 41//23
f 3//3 11//24 10//7
f 3//3 2//2 11//24
f 2//5 4//4 11//25
f 5//6 8//26 19//27
f 5//6 2//5 8//26
f 2//2 1//1 8//8
f 6//28 14//29 13//30
f 6//7 3//3 14//7
f 3//3 10//7 14//7
f 7//31 17//31 16//31
f 7//32 6//32 17//32
f 6//28 13//30 17//33
f 8//8 20//7 19//7
f 8//8 7//7 20//7
f 7//7 16//7 20//7
f 9//34 26//34 39//34
f 9//35 5//35 26//35
f 5//36 19//36 26//36
f 12//37 22//37 27//37
f 12//38 11//38 22//38
f 11//39 4//39 22//39
f 15//40 23//40 30//40
f 15//41 14//41 23//41
f 14//42 10//42 23//42
f 18//43 24//43 33//43
f 18//44 17//44 24//44
f 17//45 13//45 24//45
f 21//46 25//46 36//46
f 21//47 20//47 25//47
f 20//48 16//48 25//48
f 22//49 28//49 27//49
f 22//50 9//50 28//50
f 9//51 39//51 28//51
f 23//52 31//52 30//52
f 23//53 12//53 31//53
f 12//54 27//54 31//54
f 24//55 34//55 33//55
f 24//56 15//56 34//56
f 15//57 30//57 34//57
f 25//58 37//58 36//58
f 25//59 18//59 37//59
f 18//60 33//60 37//60
f 26//61 40//61 39//61
f 26//62 21//62 40//62
f 21//63 36//63 40//63
f 29//64 41//64 42//64
f 29//65 28//65 41//65
f 28//66 39//66 41//66
f 32//67 29//67 42//67
f 32//68 31//68 29//68
f 31//69 27//69 29//69
f 35//70 32//70 42//70
f 35//71 34//71 32//71
f 34//72 30//72 32//72
f 38//73 35//73 42//73
f 38//74 37//74 35//74
f 37//75 33//75 35//75
f 41//76 38//76 42//76
f 41//77 40//77 38//77
f 40//78 36//78 38//78
o Caillou3_Icosphere.002
v 1.973852 -0.094118 2.292107
v 2.116708 -0.093956 2.394808
v 1.919860 -0.094118 2.458282
v 2.239495 -0.091399 2.466834
v 2.281102 -0.091466 2.292107
v 1.794589 -0.094118 2.292107
v 1.919860 -0.094118 2.125932
v 2.115210 -0.094118 2.189406
v 2.326788 0.008596 2.395225
v 1.906801 -0.059976 2.560884
v 2.060945 -0.093693 2.560617
v 1.945808 0.034636 2.602090
v 1.678676 -0.108558 2.283416
v 1.780512 -0.036123 2.451261
v 1.713975 0.057260 2.395169
v 1.881994 -0.094118 2.009391
v 1.749748 -0.111027 2.110237
v 1.798600 -0.011028 2.035782
v 2.214346 -0.094118 2.117380
v 2.061218 -0.094118 2.023229
v 2.169205 0.010624 2.023227
v 2.175624 0.020288 2.553735
v 1.808327 0.089528 2.535923
v 1.673561 -0.030630 2.170080
v 2.011594 -0.004454 1.957197
v 2.297705 0.007170 2.190064
v 1.993813 0.151840 2.568019
v 2.204388 0.173422 2.462144
v 1.969851 0.232981 2.521866
v 1.713753 0.182770 2.464964
v 1.810177 0.194856 2.540857
v 1.807438 0.257290 2.426568
v 1.756964 0.123327 2.157947
v 1.671752 0.178059 2.292340
v 1.854005 0.255228 2.192662
v 2.112840 0.140655 1.993010
v 2.009145 0.135488 2.008158
v 2.054422 0.261694 2.108312
v 2.238052 0.134057 2.292948
v 2.204679 0.182667 2.126652
v 2.153774 0.265331 2.333005
v 1.984077 0.243300 2.414379
vn 0.0003 -1.0000 0.0002
vn 0.0010 -1.0000 0.0011
vn 0.0008 -1.0000 0.0008
vn 0.0168 -0.9998 0.0071
vn 0.0168 -0.9999 0.0016
vn 0.0120 -0.9999 0.0104
vn 0.0000 -1.0000 -0.0000
vn 0.0001 -1.0000 0.0002
vn 0.8032 -0.5641 0.1915
vn -0.0794 -0.3703 0.9255
vn -0.7897 -0.2183 0.5733
vn -0.7887 -0.2164 0.5754
vn -0.7879 -0.2148 0.5771
vn -0.5518 -0.3076 -0.7752
vn 0.4609 -0.4752 -0.7496
vn 0.7129 -0.1287 0.6894
vn -0.4828 -0.1747 0.8581
vn -0.9841 0.1227 0.1288
vn -0.3444 -0.0479 -0.9376
vn 0.7732 -0.2059 -0.5998
vn 0.3338 0.5386 0.7736
vn -0.4428 0.7824 0.4380
vn -0.5665 0.5727 -0.5925
vn -0.1418 0.6461 -0.7500
vn 0.8401 0.5424 -0.0100
vn -0.2043 -0.9363 0.2856
vn 0.0015 -1.0000 0.0021
vn 0.0166 -0.9998 0.0072
vn 0.0155 -0.9999 0.0012
vn 0.0086 -0.9999 0.0119
vn 0.0902 -0.9331 0.3480
vn -0.3804 -0.8793 0.2868
vn -0.3829 -0.8900 0.2474
vn 0.1019 -0.9942 -0.0331
vn 0.0923 -0.9933 0.0696
vn 0.1187 -0.9909 0.0629
vn 0.8551 0.5032 -0.1247
vn 0.9461 -0.2959 -0.1321
vn 0.8312 -0.4612 -0.3106
vn 0.2135 0.1911 0.9581
vn 0.1956 -0.1382 0.9709
vn 0.4328 -0.3863 0.8145
vn -0.7505 -0.3222 0.5770
vn -0.7878 -0.2146 0.5773
vn -0.6551 -0.3170 0.6858
vn -0.7129 0.3378 -0.6145
vn -0.7101 -0.1631 -0.6849
vn -0.7950 -0.5160 -0.3189
vn 0.3897 -0.0449 -0.9199
vn 0.3866 -0.3986 -0.8317
vn 0.0633 -0.5688 -0.8200
vn 0.3717 0.4241 0.8258
vn 0.7084 0.2595 0.6564
vn 0.8071 0.5899 0.0233
vn -0.6163 -0.0260 0.7871
vn -0.4444 -0.0341 0.8952
vn -0.0692 0.3045 0.9500
vn -0.7231 0.3445 -0.5988
vn -0.9631 -0.1422 0.2284
vn -0.9626 -0.1380 0.2331
vn -0.9622 -0.1345 0.2369
vn -0.9621 -0.1339 0.2377
vn -0.1525 0.3358 -0.9295
vn -0.3369 0.3170 -0.8866
vn -0.4553 0.5176 -0.7244
vn -0.4556 0.5178 -0.7241
vn -0.4540 0.5233 -0.7211
vn 0.8893 0.4550 -0.0455
vn 0.7786 0.1975 -0.5956
vn 0.7781 0.1979 -0.5961
vn 0.7782 0.1979 -0.5961
vn 0.7776 0.1984 -0.5967
vn -0.0888 0.9925 0.0835
vn 0.3268 0.8258 0.4597
vn 0.8469 0.5299 0.0452
vn 0.0858 0.9906 0.1065
vn -0.1501 0.8661 0.4767
vn -0.0137 0.4913 0.8709
vn 0.0794 0.9968 0.0070
vn -0.4312 0.8974 -0.0938
vn -0.5871 0.8004 0.1210
vn -0.0077 0.9983 0.0582
vn -0.3104 0.6568 -0.6872
vn -0.4536 0.5235 -0.7212
vn -0.1127 0.9931 0.0338
vn 0.4749 0.8511 -0.2238
vn 0.4441 0.7210 -0.5319
usemtl Material.006
s 1
f 43//79 44//80 45//81
f 46//82 44//83 47//84
f 43//79 45//81 48//85
f 43//79 48//85 49//85
f 43//79 49//85 50//86
f 46//87 47//87 51//87
f 52//88 53//88 54//88
f 55//89 56//90 57//91
f 58//92 59//92 60//92
f 61//93 62//93 63//93
f 46//94 51//94 64//94
f 52//95 54//95 65//95
f 55//96 57//96 66//96
f 58//97 60//97 67//97
f 61//98 63//98 68//98
f 69//99 70//99 71//99
f 72//100 73//100 74//100
f 75//101 76//101 77//101
f 78//102 79//102 80//102
f 81//103 82//103 83//103
f 45//104 53//104 52//104
f 45//81 44//80 53//105
f 44//83 46//82 53//106
f 47//84 50//107 61//108
f 47//84 44//83 50//107
f 44//80 43//79 50//86
f 48//109 56//109 55//109
f 48//110 45//110 56//110
f 45//111 52//111 56//111
f 49//112 59//112 58//112
f 49//113 48//113 59//113
f 48//114 55//114 59//114
f 50//86 62//85 61//85
f 50//86 49//85 62//85
f 49//85 58//85 62//85
f 51//115 68//115 81//115
f 51//116 47//116 68//116
f 47//117 61//117 68//117
f 54//118 64//118 69//118
f 54//119 53//119 64//119
f 53//120 46//120 64//120
f 57//121 65//121 72//121
f 57//91 56//90 65//122
f 56//123 52//123 65//123
f 60//124 66//124 75//124
f 60//125 59//125 66//125
f 59//126 55//126 66//126
f 63//127 67//127 78//127
f 63//128 62//128 67//128
f 62//129 58//129 67//129
f 64//130 70//130 69//130
f 64//131 51//131 70//131
f 51//132 81//132 70//132
f 65//133 73//133 72//133
f 65//134 54//134 73//134
f 54//135 69//135 73//135
f 66//136 76//136 75//136
f 66//137 57//138 76//139
f 57//138 72//140 76//139
f 67//141 79//141 78//141
f 67//142 60//142 79//142
f 60//143 75//144 79//145
f 68//146 82//146 81//146
f 68//147 63//148 82//149
f 63//148 78//150 82//149
f 71//151 83//151 84//151
f 71//152 70//152 83//152
f 70//153 81//153 83//153
f 74//154 71//154 84//154
f 74//155 73//155 71//155
f 73//156 69//156 71//156
f 77//157 74//157 84//157
f 77//158 76//158 74//158
f 76//159 72//159 74//159
f 80//160 77//160 84//160
f 80//161 79//161 77//161
f 79//145 75//144 77//162
f 83//163 80//163 84//163
f 83//164 82//164 80//164
f 82//165 78//165 80//165
o caillou2_Icosphere.001
v 1.914716 -0.064100 3.288686
v 2.043148 -0.063954 3.381018
v 1.865868 -0.064233 3.433686
v 2.131516 -0.075727 3.427339
v 2.169665 -0.073340 3.274196
v 1.755547 -0.064137 3.284174
v 1.865965 -0.064213 3.139529
v 2.041801 -0.064100 3.196354
v 2.177242 -0.008618 3.316100
v 1.836186 -0.073242 3.497758
v 1.991190 -0.071236 3.519295
v 1.905334 -0.019195 3.507412
v 1.582371 -0.085496 3.228652
v 1.661457 -0.069820 3.372781
v 1.571155 -0.001466 3.298554
v 1.818101 -0.071660 3.050587
v 1.673462 -0.081039 3.119956
v 1.687500 0.001578 3.052450
v 2.115186 -0.072635 3.120990
v 1.979495 -0.071517 3.062724
v 2.074136 0.021317 3.056681
v 2.088865 -0.005138 3.479454
v 1.689825 0.002698 3.401973
v 1.563925 -0.016807 3.153094
v 1.869382 0.004333 3.022926
v 2.159425 -0.000606 3.147378
v 1.967303 0.056896 3.436596
v 2.081290 0.093654 3.325532
v 1.931324 0.138673 3.358402
v 1.648820 0.106441 3.322461
v 1.751745 0.087046 3.346850
v 1.758600 0.150143 3.275954
v 1.656269 0.116586 3.103340
v 1.648630 0.132297 3.214611
v 1.762225 0.178868 3.186707
v 1.947902 0.134928 3.052868
v 1.773318 0.147835 3.039951
v 1.899767 0.198880 3.154915
v 2.129782 0.111653 3.207278
v 2.064125 0.148447 3.099740
v 2.012762 0.157244 3.242910
v 1.906638 0.140532 3.279703
vn 0.0006 -1.0000 0.0002
vn 0.0010 -1.0000 0.0002
vn 0.0008 -1.0000 -0.0006
vn -0.1098 -0.9930 -0.0428
vn 0.0002 -1.0000 -0.0001
vn 0.0003 -1.0000 0.0007
vn 0.0005 -1.0000 0.0007
vn 0.9383 -0.2586 0.2297
vn -0.1376 -0.0009 0.9905
vn -0.7445 -0.4829 0.4610
vn -0.3271 -0.5640 -0.7582
vn 0.3557 -0.4171 -0.8364
vn 0.8667 0.1803 0.4651
vn -0.3853 0.3397 0.8580
vn -0.9798 -0.1878 0.0685
vn -0.1517 -0.2461 -0.9573
vn 0.6964 -0.1725 -0.6966
vn 0.3479 0.7234 0.5964
vn -0.0164 0.7477 0.6638
vn -0.4071 0.9001 -0.1550
vn 0.1003 0.8637 -0.4940
vn 0.1004 0.8637 -0.4939
vn 0.0992 0.8635 -0.4944
vn 0.3831 0.9201 0.0809
vn 0.0303 -0.9916 -0.1254
vn -0.0158 -0.9982 -0.0585
vn -0.0876 -0.9925 -0.0852
vn -0.0883 -0.9957 0.0268
vn -0.0729 -0.9973 0.0013
vn 0.1067 -0.9931 0.0492
vn 0.1066 -0.9931 0.0495
vn 0.1067 -0.9931 0.0491
vn 0.0352 -0.9990 -0.0266
vn 0.0603 -0.9919 -0.1115
vn 0.0831 -0.9958 0.0387
vn 0.0806 -0.9948 0.0621
vn 0.1068 -0.9931 0.0488
vn -0.0400 -0.9965 0.0739
vn -0.0203 -0.9977 0.0649
vn -0.0056 -0.9962 0.0864
vn 0.9509 0.2972 -0.0863
vn 0.9931 -0.0469 -0.1071
vn 0.8570 -0.4140 -0.3067
vn 0.0654 0.6508 0.7565
vn 0.1095 0.3894 0.9145
vn 0.5196 -0.2816 0.8067
vn -0.6332 0.2974 0.7146
vn -0.6553 -0.0471 0.7539
vn -0.5802 -0.0985 0.8085
vn -0.6376 0.1603 -0.7535
vn -0.5039 -0.4936 -0.7089
vn -0.5468 -0.6816 -0.4862
vn 0.1503 0.1342 -0.9795
vn 0.1774 -0.2429 -0.9537
vn 0.0696 -0.3824 -0.9214
vn 0.2378 0.8227 0.5163
vn 0.6959 0.6194 0.3633
vn 0.6924 0.6148 0.3775
vn -0.0806 0.5861 0.8062
vn -0.2753 0.6593 0.6996
vn -0.1670 0.7412 0.6502
vn -0.8374 0.5303 -0.1324
vn -0.8678 0.4968 -0.0093
vn -0.8181 0.5588 0.1354
vn 0.0854 0.1736 -0.9811
vn -0.1604 0.0097 -0.9870
vn -0.5101 0.2284 -0.8293
vn 0.8327 0.4153 -0.3663
vn 0.7332 0.2692 -0.6244
vn 0.3206 0.3264 -0.8892
vn -0.1332 0.9890 0.0651
vn 0.3413 0.8602 0.3790
vn 0.4248 0.8527 0.3040
vn 0.0647 0.9979 0.0033
vn -0.2518 0.7349 0.6297
vn -0.2264 0.6193 0.7518
vn 0.0539 0.9499 0.3079
vn -0.3043 0.9103 0.2806
vn -0.2768 0.9343 0.2245
vn -0.0334 0.9047 0.4248
vn -0.1895 0.9576 -0.2168
vn -0.3606 0.9066 -0.2190
vn 0.0041 0.9059 0.4234
vn 0.3090 0.9496 0.0525
vn 0.0990 0.8635 -0.4945
usemtl Material.005
s 1
f 85//166 86//167 87//168
f 88//169 86//169 89//169
f 85//166 87//168 90//170
f 85//166 90//170 91//171
f 85//166 91//171 92//172
f 88//173 89//173 93//173
f 94//174 95//174 96//174
f 97//175 98//175 99//175
f 100//176 101//176 102//176
f 103//177 104//177 105//177
f 88//178 93//178 106//178
f 94//179 96//179 107//179
f 97//180 99//180 108//180
f 100//181 102//181 109//181
f 103//182 105//182 110//182
f 111//183 112//183 113//183
f 114//184 115//184 116//184
f 117//185 118//185 119//185
f 120//186 121//187 122//188
f 123//189 124//189 125//189
f 87//190 95//190 94//190
f 87//191 86//191 95//191
f 86//192 88//192 95//192
f 89//193 92//193 103//193
f 89//194 86//194 92//194
f 86//167 85//166 92//172
f 90//195 98//196 97//197
f 90//198 87//198 98//198
f 87//199 94//199 98//199
f 91//200 101//200 100//200
f 91//201 90//201 101//201
f 90//195 97//197 101//202
f 92//203 104//203 103//203
f 92//204 91//204 104//204
f 91//205 100//205 104//205
f 93//206 110//206 123//206
f 93//207 89//207 110//207
f 89//208 103//208 110//208
f 96//209 106//209 111//209
f 96//210 95//210 106//210
f 95//211 88//211 106//211
f 99//212 107//212 114//212
f 99//213 98//213 107//213
f 98//214 94//214 107//214
f 102//215 108//215 117//215
f 102//216 101//216 108//216
f 101//217 97//217 108//217
f 105//218 109//218 120//218
f 105//219 104//219 109//219
f 104//220 100//220 109//220
f 106//221 112//221 111//221
f 106//222 93//222 112//222
f 93//223 123//223 112//223
f 107//224 115//224 114//224
f 107//225 96//225 115//225
f 96//226 111//226 115//226
f 108//227 118//227 117//227
f 108//228 99//228 118//228
f 99//229 114//229 118//229
f 109//230 121//230 120//230
f 109//231 102//231 121//231
f 102//232 117//232 121//232
f 110//233 124//233 123//233
f 110//234 105//234 124//234
f 105//235 120//235 124//235
f 113//236 125//236 126//236
f 113//237 112//237 125//237
f 112//238 123//238 125//238
f 116//239 113//239 126//239
f 116//240 115//240 113//240
f 115//241 111//241 113//241
f 119//242 116//242 126//242
f 119//243 118//243 116//243
f 118//244 114//244 116//244
f 122//245 119//245 126//245
f 122//246 121//246 119//246
f 121//247 117//247 119//247
f 125//248 122//248 126//248
f 125//249 124//249 122//249
f 124//250 120//186 122//188
